<?xml version="1.0" encoding="UTF-8" standalone="no"?>
<svg
   xmlns:dc="http://purl.org/dc/elements/1.1/"
   xmlns:cc="http://creativecommons.org/ns#"
   xmlns:rdf="http://www.w3.org/1999/02/22-rdf-syntax-ns#"
   xmlns:svg="http://www.w3.org/2000/svg"
   xmlns="http://www.w3.org/2000/svg"
   version="1.1"
   id="Capa_1"
   x="0px"
   y="0px"
   width="64"
   height="64"
   viewBox="0 0 64.000002 64.000002"
   xml:space="preserve"><metadata
   id="metadata41"><rdf:RDF><cc:Work
       rdf:about=""><dc:format>image/svg+xml</dc:format><dc:type
         rdf:resource="http://purl.org/dc/dcmitype/StillImage" /><dc:title></dc:title></cc:Work></rdf:RDF></metadata><defs
   id="defs39"><radialGradient
   gradientUnits="userSpaceOnUse"
   gradientTransform="matrix(0.9977,0,0,0.9977,-91.724387,-7.2087489)"
   r="42.798401"
   cy="43.222099"
   cx="43.220501"
   id="radialGradient1035"><stop
     id="stop1031"
     style="stop-color:#a13f3f;stop-opacity:1"
     offset="0" /><stop
     id="stop1033"
     style="stop-color:#cc7290;stop-opacity:1"
     offset="1" /></radialGradient><radialGradient
   gradientUnits="userSpaceOnUse"
   gradientTransform="matrix(0.9977,0,0,0.9977,-91.724387,-7.2087489)"
   r="42.798401"
   cy="43.222099"
   cx="43.220501"
   id="radialGradient1029"><stop
     id="stop1025"
     style="stop-color:#ff6044;stop-opacity:1"
     offset="0" /><stop
     id="stop1027"
     style="stop-color:#e60000;stop-opacity:1"
     offset="1" /></radialGradient><radialGradient
   spreadMethod="pad"
   fr="0"
   fy="43.222099"
   fx="43.220501"
   id="SVGID_1_"
   cx="43.220501"
   cy="43.222099"
   r="42.798401"
   gradientTransform="matrix(0.9977,0,0,0.9977,-0.1211,-0.1227)"
   gradientUnits="userSpaceOnUse">
		<stop
   offset="0"
   style="stop-color:#6b6b6b;stop-opacity:1"
   id="stop3" />
		<stop
   offset="1"
   style="stop-color:#363636;stop-opacity:1"
   id="stop5" />
	</radialGradient><radialGradient
   id="SVGID_1_-6"
   cx="43.220501"
   cy="43.222099"
   r="42.798401"
   gradientTransform="matrix(0.9977,0,0,0.9977,-91.724387,-7.2087489)"
   gradientUnits="userSpaceOnUse"><stop
     offset="0"
     style="stop-color:#a13f3f;stop-opacity:1"
     id="stop3-7" /><stop
     offset="1"
     style="stop-color:#d4a1a1;stop-opacity:1"
     id="stop5-5" /></radialGradient><radialGradient
   id="SVGID_3_"
   cx="26.9526"
   cy="62.667301"
   r="30.3622"
   gradientTransform="matrix(0.62252974,0,0,0.62252974,26.221264,3.9880502)"
   gradientUnits="userSpaceOnUse"><stop
     offset="0"
     style="stop-color:#4EB4BA"
     id="stop17" /><stop
     offset="1"
     style="stop-color:#007DA4"
     id="stop19" /></radialGradient>
</defs>
















<g
   id="g1076"
   style="fill:#ffffff"
   transform="translate(2.6647775,-0.970443)"><g
     style="fill:#ffffff;stroke:none"
     transform="matrix(0.07765254,-0.04483272,0.04483272,0.07765254,9.3484014,30.122517)"
     id="g6">
</g><g
     style="fill:#ffffff;stroke:none"
     transform="matrix(0.07765254,-0.04483272,0.04483272,0.07765254,9.3484014,30.122517)"
     id="g8">
</g><g
     style="fill:#ffffff;stroke:none"
     transform="matrix(0.07765254,-0.04483272,0.04483272,0.07765254,9.3484014,30.122517)"
     id="g10">
</g><g
     style="fill:#ffffff;stroke:none"
     transform="matrix(0.07765254,-0.04483272,0.04483272,0.07765254,9.3484014,30.122517)"
     id="g12">
</g><g
     style="fill:#ffffff;stroke:none"
     transform="matrix(0.07765254,-0.04483272,0.04483272,0.07765254,9.3484014,30.122517)"
     id="g14">
</g><g
     style="fill:#ffffff;stroke:none"
     transform="matrix(0.07765254,-0.04483272,0.04483272,0.07765254,9.3484014,30.122517)"
     id="g16">
</g><g
     style="fill:#ffffff;stroke:none"
     transform="matrix(0.07765254,-0.04483272,0.04483272,0.07765254,9.3484014,30.122517)"
     id="g18">
</g><g
     style="fill:#ffffff;stroke:none"
     transform="matrix(0.07765254,-0.04483272,0.04483272,0.07765254,9.3484014,30.122517)"
     id="g20">
</g><g
     style="fill:#ffffff;stroke:none"
     transform="matrix(0.07765254,-0.04483272,0.04483272,0.07765254,9.3484014,30.122517)"
     id="g22">
</g><g
     style="fill:#ffffff;stroke:none"
     transform="matrix(0.07765254,-0.04483272,0.04483272,0.07765254,9.3484014,30.122517)"
     id="g24">
</g><g
     style="fill:#ffffff;stroke:none"
     transform="matrix(0.07765254,-0.04483272,0.04483272,0.07765254,9.3484014,30.122517)"
     id="g26">
</g><g
     style="fill:#ffffff;stroke:none"
     transform="matrix(0.07765254,-0.04483272,0.04483272,0.07765254,9.3484014,30.122517)"
     id="g28">
</g><g
     style="fill:#ffffff;stroke:none"
     transform="matrix(0.07765254,-0.04483272,0.04483272,0.07765254,9.3484014,30.122517)"
     id="g30">
</g><g
     style="fill:#ffffff;stroke:none"
     transform="matrix(0.07765254,-0.04483272,0.04483272,0.07765254,9.3484014,30.122517)"
     id="g32">
</g><g
     style="fill:#ffffff;stroke:none"
     transform="matrix(0.07765254,-0.04483272,0.04483272,0.07765254,9.3484014,30.122517)"
     id="g34">
</g><path
     style="fill:#ffffff;fill-opacity:1;stroke:none;stroke-width:0.09805019"
     id="path10-5"
     d="m 47.376081,15.290249 c 0,0.04437 -0.164501,0.08037 -0.367232,0.08037 H 35.348561 c -0.202924,0 -0.367232,-0.036 -0.367232,-0.08037 v -2.551485 c 0,-0.04436 0.164501,-0.08037 0.367232,-0.08037 h 11.660288 c 0.202924,0 0.367232,0.036 0.367232,0.08037 z" /><path
     style="fill:#ffffff;fill-opacity:1;stroke:none;stroke-width:0.10134874"
     id="path10-6"
     d="m 47.376081,24.329396 c 0,0.196739 -0.03963,0.356382 -0.08848,0.356382 h -2.809328 c -0.04889,0 -0.08848,-0.159643 -0.08848,-0.356382 V 13.014782 c 0,-0.19674 0.03963,-0.356384 0.08848,-0.356384 h 2.809328 c 0.04889,0 0.08848,0.159644 0.08848,0.356384 z" /><path
     style="fill:#ffffff;fill-opacity:1;stroke:none;stroke-width:0.09805019"
     id="path10-5-7"
     d="m 13.926215,12.658399 c 0.04437,0 0.08037,0.164501 0.08037,0.367232 v 11.660288 c 0,0.202924 -0.036,0.367232 -0.08037,0.367232 H 11.37473 c -0.04436,0 -0.08037,-0.164501 -0.08037,-0.367232 V 13.025631 c 0,-0.202924 0.036,-0.367232 0.08037,-0.367232 z" /><path
     style="fill:#ffffff;fill-opacity:1;stroke:none;stroke-width:0.10134874"
     id="path10-6-0"
     d="m 22.965362,12.658399 c 0.196739,0 0.356382,0.03963 0.356382,0.08848 v 2.809328 c 0,0.04889 -0.159643,0.08848 -0.356382,0.08848 H 11.650748 c -0.19674,0 -0.356384,-0.03963 -0.356384,-0.08848 v -2.809328 c 0,-0.04889 0.159644,-0.08848 0.356384,-0.08848 z" /><path
     style="fill:#ffffff;fill-opacity:1;stroke:none;stroke-width:0.09805019"
     id="path10-5-7-6"
     d="m 44.74423,53.282488 c -0.04437,0 -0.08037,-0.164501 -0.08037,-0.367232 V 41.254968 c 0,-0.202924 0.036,-0.367232 0.08037,-0.367232 h 2.551485 c 0.04436,0 0.08037,0.164501 0.08037,0.367232 v 11.660288 c 0,0.202924 -0.036,0.367232 -0.08037,0.367232 z" /><path
     style="fill:#ffffff;fill-opacity:1;stroke:none;stroke-width:0.10134874"
     id="path10-6-0-2"
     d="m 35.705083,53.282488 c -0.196739,0 -0.356382,-0.03963 -0.356382,-0.08848 V 50.38468 c 0,-0.04889 0.159643,-0.08848 0.356382,-0.08848 h 11.314614 c 0.19674,0 0.356384,0.03963 0.356384,0.08848 v 2.809328 c 0,0.04889 -0.159644,0.08848 -0.356384,0.08848 z" /></g><g
   transform="matrix(0.059049,0,0,0.059049,26.19797,4.2324793)"
   id="g911"><g
     id="g854">
	<g
   id="cast">
		
	<path
   style="fill:#ffffff"
   d="m -207.28951,737.68838 v 76.5 h 76.5 c 0,-43.35 -33.15,-76.5 -76.5,-76.5 z m 0,-102 v 51 c 71.4,0 127.499998,56.1 127.499998,127.5 h 50.999999 c 0,-99.45 -79.049997,-178.5 -178.499997,-178.5 z m 0,-102 v 51 c 127.499998,0 229.499997,102 229.499997,229.5 h 51 c 0,-155.55 -124.949999,-280.5 -280.499997,-280.5 z"
   id="path851" /></g>
</g><g
     id="g856">
</g><g
     id="g858">
</g><g
     id="g860">
</g><g
     id="g862">
</g><g
     id="g864">
</g><g
     id="g866">
</g><g
     id="g868">
</g><g
     id="g870">
</g><g
     id="g872">
</g><g
     id="g874">
</g><g
     id="g876">
</g><g
     id="g878">
</g><g
     id="g880">
</g><g
     id="g882">
</g><g
     id="g884">
</g></g></svg>